<mxfile host="app.diagrams.net" agent="Mozilla/5.0 (Windows NT 10.0; Win64; x64) AppleWebKit/537.36 (KHTML, like Gecko) Chrome/139.0.0.0 Safari/537.36" version="28.0.9">
  <diagram name="Страница — 1" id="X_yI0yotCrInk8uDqCdY">
    <mxGraphModel dx="2864" dy="2230" grid="1" gridSize="10" guides="1" tooltips="1" connect="1" arrows="1" fold="1" page="1" pageScale="1" pageWidth="827" pageHeight="1169" math="0" shadow="0">
      <root>
        <mxCell id="0" />
        <mxCell id="1" parent="0" />
        <mxCell id="pVzRPu4Jaru_-5LtxVrg-1" value="&lt;font style=&quot;font-size: 21px;&quot;&gt;Пользователь&lt;/font&gt;" style="text;align=center;html=1;verticalAlign=middle;whiteSpace=wrap;rounded=0;fontFamily=Times New Roman;fontSize=14;" vertex="1" parent="1">
          <mxGeometry x="28" y="-36" width="80" height="30" as="geometry" />
        </mxCell>
        <mxCell id="pVzRPu4Jaru_-5LtxVrg-8" value="" style="edgeStyle=orthogonalEdgeStyle;rounded=0;orthogonalLoop=1;jettySize=auto;html=1;entryX=0.5;entryY=0;entryDx=0;entryDy=0;" edge="1" parent="1" source="pVzRPu4Jaru_-5LtxVrg-3" target="pVzRPu4Jaru_-5LtxVrg-6">
          <mxGeometry relative="1" as="geometry">
            <mxPoint x="90" y="245" as="targetPoint" />
          </mxGeometry>
        </mxCell>
        <mxCell id="pVzRPu4Jaru_-5LtxVrg-3" value="Начало диалога с ботом" style="rounded=1;whiteSpace=wrap;html=1;" vertex="1" parent="1">
          <mxGeometry x="17.5" y="150" width="145" height="30" as="geometry" />
        </mxCell>
        <mxCell id="pVzRPu4Jaru_-5LtxVrg-4" value="&lt;h1&gt;&lt;font style=&quot;font-size: 42px;&quot;&gt;Процесс заказа книги через Telegram-бот&lt;/font&gt;&lt;/h1&gt;" style="text;strokeColor=none;align=center;fillColor=none;html=1;verticalAlign=middle;whiteSpace=wrap;rounded=0;fontStyle=1;fontFamily=Times New Roman;" vertex="1" parent="1">
          <mxGeometry x="60" y="-200" width="720" height="110" as="geometry" />
        </mxCell>
        <mxCell id="pVzRPu4Jaru_-5LtxVrg-5" value="&lt;font face=&quot;Times New Roman&quot; style=&quot;font-weight: normal; font-size: 21px;&quot;&gt;Telegram-бот&lt;/font&gt;" style="text;strokeColor=none;align=center;fillColor=none;html=1;verticalAlign=middle;whiteSpace=wrap;rounded=0;fontStyle=1" vertex="1" parent="1">
          <mxGeometry x="397.5" y="-36" width="125" height="30" as="geometry" />
        </mxCell>
        <mxCell id="pVzRPu4Jaru_-5LtxVrg-13" style="edgeStyle=orthogonalEdgeStyle;rounded=0;orthogonalLoop=1;jettySize=auto;html=1;exitX=0.5;exitY=1;exitDx=0;exitDy=0;" edge="1" parent="1" source="pVzRPu4Jaru_-5LtxVrg-6" target="pVzRPu4Jaru_-5LtxVrg-12">
          <mxGeometry relative="1" as="geometry" />
        </mxCell>
        <mxCell id="pVzRPu4Jaru_-5LtxVrg-6" value="Показ главного меню(Каталог, Поиск,Корзина,Заказы)" style="rounded=1;whiteSpace=wrap;html=1;" vertex="1" parent="1">
          <mxGeometry x="307" y="210" width="303" height="40" as="geometry" />
        </mxCell>
        <mxCell id="pVzRPu4Jaru_-5LtxVrg-17" style="edgeStyle=orthogonalEdgeStyle;rounded=0;orthogonalLoop=1;jettySize=auto;html=1;entryX=0.5;entryY=0;entryDx=0;entryDy=0;exitX=0.143;exitY=0.959;exitDx=0;exitDy=0;exitPerimeter=0;" edge="1" parent="1">
          <mxGeometry relative="1" as="geometry">
            <mxPoint x="170.49999999999991" y="348.77" as="sourcePoint" />
            <mxPoint x="439.67" y="400" as="targetPoint" />
          </mxGeometry>
        </mxCell>
        <mxCell id="pVzRPu4Jaru_-5LtxVrg-12" value="&lt;font style=&quot;font-size: 14px;&quot; face=&quot;Times New Roman&quot;&gt;Выбор действия&lt;/font&gt;" style="shape=hexagon;perimeter=hexagonPerimeter2;whiteSpace=wrap;html=1;fixedSize=1;" vertex="1" parent="1">
          <mxGeometry x="28" y="329" width="142.5" height="40" as="geometry" />
        </mxCell>
        <mxCell id="pVzRPu4Jaru_-5LtxVrg-20" style="edgeStyle=orthogonalEdgeStyle;rounded=0;orthogonalLoop=1;jettySize=auto;html=1;exitX=0.5;exitY=1;exitDx=0;exitDy=0;" edge="1" parent="1" source="pVzRPu4Jaru_-5LtxVrg-14" target="pVzRPu4Jaru_-5LtxVrg-19">
          <mxGeometry relative="1" as="geometry" />
        </mxCell>
        <mxCell id="pVzRPu4Jaru_-5LtxVrg-14" value="&lt;font style=&quot;font-size: 14px;&quot; face=&quot;Times New Roman&quot;&gt;Ввод ключевых слов&lt;/font&gt;" style="rounded=1;whiteSpace=wrap;html=1;" vertex="1" parent="1">
          <mxGeometry x="134" y="400" width="130" height="40" as="geometry" />
        </mxCell>
        <mxCell id="pVzRPu4Jaru_-5LtxVrg-25" style="edgeStyle=orthogonalEdgeStyle;rounded=0;orthogonalLoop=1;jettySize=auto;html=1;exitX=0.5;exitY=1;exitDx=0;exitDy=0;entryX=0.5;entryY=0;entryDx=0;entryDy=0;" edge="1" parent="1" source="pVzRPu4Jaru_-5LtxVrg-16" target="pVzRPu4Jaru_-5LtxVrg-24">
          <mxGeometry relative="1" as="geometry" />
        </mxCell>
        <mxCell id="pVzRPu4Jaru_-5LtxVrg-16" value="&lt;font style=&quot;font-size: 14px;&quot; face=&quot;Times New Roman&quot;&gt;Отобразить каталог книг&lt;/font&gt;" style="rounded=1;whiteSpace=wrap;html=1;" vertex="1" parent="1">
          <mxGeometry x="370" y="400" width="153" height="40" as="geometry" />
        </mxCell>
        <mxCell id="pVzRPu4Jaru_-5LtxVrg-18" value="" style="endArrow=none;html=1;rounded=0;" edge="1" parent="1">
          <mxGeometry width="50" height="50" relative="1" as="geometry">
            <mxPoint x="280" y="2040" as="sourcePoint" />
            <mxPoint x="280" y="-40" as="targetPoint" />
          </mxGeometry>
        </mxCell>
        <mxCell id="pVzRPu4Jaru_-5LtxVrg-23" style="edgeStyle=orthogonalEdgeStyle;rounded=0;orthogonalLoop=1;jettySize=auto;html=1;exitX=0.5;exitY=1;exitDx=0;exitDy=0;entryX=0.5;entryY=0;entryDx=0;entryDy=0;" edge="1" parent="1" source="pVzRPu4Jaru_-5LtxVrg-19" target="pVzRPu4Jaru_-5LtxVrg-21">
          <mxGeometry relative="1" as="geometry" />
        </mxCell>
        <mxCell id="pVzRPu4Jaru_-5LtxVrg-19" value="&lt;font style=&quot;font-size: 14px;&quot; face=&quot;Times New Roman&quot;&gt;Фильтрация по жанру, цене и популярности&lt;/font&gt;" style="rounded=1;whiteSpace=wrap;html=1;" vertex="1" parent="1">
          <mxGeometry x="-144" y="520" width="288" height="40" as="geometry" />
        </mxCell>
        <mxCell id="pVzRPu4Jaru_-5LtxVrg-30" style="edgeStyle=orthogonalEdgeStyle;rounded=0;orthogonalLoop=1;jettySize=auto;html=1;exitX=0.5;exitY=1;exitDx=0;exitDy=0;entryX=0;entryY=0.5;entryDx=0;entryDy=0;" edge="1" parent="1" source="pVzRPu4Jaru_-5LtxVrg-21" target="pVzRPu4Jaru_-5LtxVrg-28">
          <mxGeometry relative="1" as="geometry" />
        </mxCell>
        <mxCell id="pVzRPu4Jaru_-5LtxVrg-21" value="&lt;font style=&quot;font-size: 14px;&quot; face=&quot;Times New Roman&quot;&gt;Выбор книги&lt;/font&gt;" style="rounded=1;whiteSpace=wrap;html=1;" vertex="1" parent="1">
          <mxGeometry x="-60" y="640" width="120" height="40" as="geometry" />
        </mxCell>
        <mxCell id="pVzRPu4Jaru_-5LtxVrg-82" style="edgeStyle=orthogonalEdgeStyle;rounded=0;orthogonalLoop=1;jettySize=auto;html=1;exitX=0.5;exitY=1;exitDx=0;exitDy=0;entryX=0.5;entryY=0;entryDx=0;entryDy=0;" edge="1" parent="1" source="pVzRPu4Jaru_-5LtxVrg-24" target="pVzRPu4Jaru_-5LtxVrg-26">
          <mxGeometry relative="1" as="geometry" />
        </mxCell>
        <mxCell id="pVzRPu4Jaru_-5LtxVrg-24" value="&lt;font style=&quot;font-size: 14px;&quot; face=&quot;Times New Roman&quot;&gt;Показ результатов поиска&lt;/font&gt;" style="rounded=1;whiteSpace=wrap;html=1;" vertex="1" parent="1">
          <mxGeometry x="355" y="510" width="183" height="40" as="geometry" />
        </mxCell>
        <mxCell id="pVzRPu4Jaru_-5LtxVrg-83" style="edgeStyle=orthogonalEdgeStyle;rounded=0;orthogonalLoop=1;jettySize=auto;html=1;exitX=0.5;exitY=1;exitDx=0;exitDy=0;entryX=1;entryY=0.5;entryDx=0;entryDy=0;" edge="1" parent="1" source="pVzRPu4Jaru_-5LtxVrg-26" target="pVzRPu4Jaru_-5LtxVrg-28">
          <mxGeometry relative="1" as="geometry" />
        </mxCell>
        <mxCell id="pVzRPu4Jaru_-5LtxVrg-26" value="&lt;font style=&quot;font-size: 14px;&quot; face=&quot;Times New Roman&quot;&gt;Выбор книги&lt;/font&gt;" style="rounded=1;whiteSpace=wrap;html=1;" vertex="1" parent="1">
          <mxGeometry x="144" y="640" width="120" height="40" as="geometry" />
        </mxCell>
        <mxCell id="pVzRPu4Jaru_-5LtxVrg-32" value="" style="edgeStyle=orthogonalEdgeStyle;rounded=0;orthogonalLoop=1;jettySize=auto;html=1;" edge="1" parent="1" source="pVzRPu4Jaru_-5LtxVrg-28" target="pVzRPu4Jaru_-5LtxVrg-31">
          <mxGeometry relative="1" as="geometry" />
        </mxCell>
        <mxCell id="pVzRPu4Jaru_-5LtxVrg-28" value="" style="rhombus;whiteSpace=wrap;html=1;" vertex="1" parent="1">
          <mxGeometry x="72" y="710" width="36" height="40" as="geometry" />
        </mxCell>
        <mxCell id="pVzRPu4Jaru_-5LtxVrg-84" style="edgeStyle=orthogonalEdgeStyle;rounded=0;orthogonalLoop=1;jettySize=auto;html=1;exitX=0.5;exitY=1;exitDx=0;exitDy=0;entryX=0.5;entryY=0;entryDx=0;entryDy=0;" edge="1" parent="1" source="pVzRPu4Jaru_-5LtxVrg-31" target="pVzRPu4Jaru_-5LtxVrg-33">
          <mxGeometry relative="1" as="geometry" />
        </mxCell>
        <mxCell id="pVzRPu4Jaru_-5LtxVrg-31" value="&lt;font style=&quot;font-size: 14px;&quot; face=&quot;Times New Roman&quot;&gt;Добавление книги в корзину&lt;/font&gt;" style="rounded=1;whiteSpace=wrap;html=1;" vertex="1" parent="1">
          <mxGeometry x="2.75" y="790" width="174.5" height="40" as="geometry" />
        </mxCell>
        <mxCell id="pVzRPu4Jaru_-5LtxVrg-85" style="edgeStyle=orthogonalEdgeStyle;rounded=0;orthogonalLoop=1;jettySize=auto;html=1;exitX=0.5;exitY=1;exitDx=0;exitDy=0;entryX=0.5;entryY=0;entryDx=0;entryDy=0;" edge="1" parent="1" source="pVzRPu4Jaru_-5LtxVrg-33" target="pVzRPu4Jaru_-5LtxVrg-35">
          <mxGeometry relative="1" as="geometry" />
        </mxCell>
        <mxCell id="pVzRPu4Jaru_-5LtxVrg-33" value="&lt;font style=&quot;font-size: 14px;&quot; face=&quot;Times New Roman&quot;&gt;Показ корзины и кнопки &quot;Оформить заказ&quot;&lt;/font&gt;" style="rounded=1;whiteSpace=wrap;html=1;" vertex="1" parent="1">
          <mxGeometry x="300" y="870" width="270" height="50" as="geometry" />
        </mxCell>
        <mxCell id="pVzRPu4Jaru_-5LtxVrg-38" style="edgeStyle=orthogonalEdgeStyle;rounded=0;orthogonalLoop=1;jettySize=auto;html=1;exitX=0.5;exitY=1;exitDx=0;exitDy=0;entryX=0.5;entryY=0;entryDx=0;entryDy=0;" edge="1" parent="1" source="pVzRPu4Jaru_-5LtxVrg-35" target="pVzRPu4Jaru_-5LtxVrg-37">
          <mxGeometry relative="1" as="geometry" />
        </mxCell>
        <mxCell id="pVzRPu4Jaru_-5LtxVrg-35" value="&lt;font style=&quot;font-size: 14px;&quot;&gt;Нажатие кнопки оформление заказа&lt;/font&gt;" style="rounded=1;whiteSpace=wrap;html=1;" vertex="1" parent="1">
          <mxGeometry x="-30" y="960" width="240" height="40" as="geometry" />
        </mxCell>
        <mxCell id="pVzRPu4Jaru_-5LtxVrg-86" style="edgeStyle=orthogonalEdgeStyle;rounded=0;orthogonalLoop=1;jettySize=auto;html=1;exitX=0.5;exitY=1;exitDx=0;exitDy=0;entryX=0.5;entryY=0;entryDx=0;entryDy=0;" edge="1" parent="1" source="pVzRPu4Jaru_-5LtxVrg-37" target="pVzRPu4Jaru_-5LtxVrg-39">
          <mxGeometry relative="1" as="geometry" />
        </mxCell>
        <mxCell id="pVzRPu4Jaru_-5LtxVrg-37" value="&lt;font face=&quot;Times New Roman&quot; style=&quot;font-size: 14px;&quot;&gt;Запрос контактных данных и способа доставки&lt;/font&gt;" style="rounded=1;whiteSpace=wrap;html=1;" vertex="1" parent="1">
          <mxGeometry x="310" y="1040" width="290" height="60" as="geometry" />
        </mxCell>
        <mxCell id="pVzRPu4Jaru_-5LtxVrg-87" style="edgeStyle=orthogonalEdgeStyle;rounded=0;orthogonalLoop=1;jettySize=auto;html=1;exitX=0.5;exitY=1;exitDx=0;exitDy=0;" edge="1" parent="1" source="pVzRPu4Jaru_-5LtxVrg-39" target="pVzRPu4Jaru_-5LtxVrg-41">
          <mxGeometry relative="1" as="geometry" />
        </mxCell>
        <mxCell id="pVzRPu4Jaru_-5LtxVrg-39" value="&lt;font style=&quot;font-size: 14px;&quot; face=&quot;Times New Roman&quot;&gt;Ввод данных&lt;/font&gt;" style="rounded=1;whiteSpace=wrap;html=1;" vertex="1" parent="1">
          <mxGeometry x="2.75" y="1150" width="120" height="30" as="geometry" />
        </mxCell>
        <mxCell id="pVzRPu4Jaru_-5LtxVrg-44" style="edgeStyle=orthogonalEdgeStyle;rounded=0;orthogonalLoop=1;jettySize=auto;html=1;exitX=0.5;exitY=1;exitDx=0;exitDy=0;entryX=0.5;entryY=0;entryDx=0;entryDy=0;" edge="1" parent="1" source="pVzRPu4Jaru_-5LtxVrg-41" target="pVzRPu4Jaru_-5LtxVrg-43">
          <mxGeometry relative="1" as="geometry" />
        </mxCell>
        <mxCell id="pVzRPu4Jaru_-5LtxVrg-41" value="Подтверждение заказа" style="rounded=1;whiteSpace=wrap;html=1;" vertex="1" parent="1">
          <mxGeometry x="380" y="1250" width="160" height="40" as="geometry" />
        </mxCell>
        <mxCell id="pVzRPu4Jaru_-5LtxVrg-43" value="&lt;font style=&quot;font-size: 14px;&quot; face=&quot;Times New Roman&quot;&gt;Подтверждено?&lt;/font&gt;" style="shape=hexagon;perimeter=hexagonPerimeter2;whiteSpace=wrap;html=1;fixedSize=1;" vertex="1" parent="1">
          <mxGeometry x="385" y="1340" width="150" height="50" as="geometry" />
        </mxCell>
        <mxCell id="pVzRPu4Jaru_-5LtxVrg-45" value="&lt;font face=&quot;Times New Roman&quot; style=&quot;font-size: 14px;&quot;&gt;Возврат в корзину&lt;/font&gt;" style="rounded=1;whiteSpace=wrap;html=1;" vertex="1" parent="1">
          <mxGeometry x="-10" y="1490" width="120" height="30" as="geometry" />
        </mxCell>
        <mxCell id="pVzRPu4Jaru_-5LtxVrg-49" style="edgeStyle=orthogonalEdgeStyle;rounded=0;orthogonalLoop=1;jettySize=auto;html=1;exitX=0.5;exitY=1;exitDx=0;exitDy=0;entryX=0.585;entryY=0;entryDx=0;entryDy=0;entryPerimeter=0;" edge="1" parent="1" source="pVzRPu4Jaru_-5LtxVrg-45">
          <mxGeometry relative="1" as="geometry">
            <mxPoint x="49.96250000000009" y="1560" as="targetPoint" />
          </mxGeometry>
        </mxCell>
        <mxCell id="pVzRPu4Jaru_-5LtxVrg-50" value="&lt;font style=&quot;font-size: 14px;&quot; face=&quot;Times New Roman&quot;&gt;Завершение процесса&lt;/font&gt;" style="ellipse;whiteSpace=wrap;html=1;" vertex="1" parent="1">
          <mxGeometry x="10" y="1560" width="80" height="80" as="geometry" />
        </mxCell>
        <mxCell id="pVzRPu4Jaru_-5LtxVrg-52" value="" style="endArrow=none;html=1;rounded=0;" edge="1" parent="1">
          <mxGeometry width="50" height="50" relative="1" as="geometry">
            <mxPoint x="640" y="2040" as="sourcePoint" />
            <mxPoint x="640" y="-40" as="targetPoint" />
          </mxGeometry>
        </mxCell>
        <mxCell id="pVzRPu4Jaru_-5LtxVrg-53" value="&lt;font style=&quot;font-size: 21px;&quot; face=&quot;Times New Roman&quot;&gt;Система магазина&lt;/font&gt;" style="text;strokeColor=none;align=center;fillColor=none;html=1;verticalAlign=middle;whiteSpace=wrap;rounded=0;" vertex="1" parent="1">
          <mxGeometry x="715" y="-36" width="170" height="30" as="geometry" />
        </mxCell>
        <mxCell id="pVzRPu4Jaru_-5LtxVrg-98" style="edgeStyle=orthogonalEdgeStyle;rounded=0;orthogonalLoop=1;jettySize=auto;html=1;exitX=0.5;exitY=1;exitDx=0;exitDy=0;entryX=0.5;entryY=0;entryDx=0;entryDy=0;" edge="1" parent="1" source="pVzRPu4Jaru_-5LtxVrg-54" target="pVzRPu4Jaru_-5LtxVrg-55">
          <mxGeometry relative="1" as="geometry" />
        </mxCell>
        <mxCell id="pVzRPu4Jaru_-5LtxVrg-54" value="&lt;font style=&quot;font-size: 14px;&quot; face=&quot;Times New Roman&quot;&gt;Сохранение заказа в БД&lt;/font&gt;" style="rounded=1;whiteSpace=wrap;html=1;" vertex="1" parent="1">
          <mxGeometry x="695" y="1480" width="210" height="40" as="geometry" />
        </mxCell>
        <mxCell id="pVzRPu4Jaru_-5LtxVrg-89" style="edgeStyle=orthogonalEdgeStyle;rounded=0;orthogonalLoop=1;jettySize=auto;html=1;exitX=0.5;exitY=1;exitDx=0;exitDy=0;entryX=0.5;entryY=0;entryDx=0;entryDy=0;" edge="1" parent="1" source="pVzRPu4Jaru_-5LtxVrg-55" target="pVzRPu4Jaru_-5LtxVrg-57">
          <mxGeometry relative="1" as="geometry" />
        </mxCell>
        <mxCell id="pVzRPu4Jaru_-5LtxVrg-55" value="&lt;font face=&quot;Times New Roman&quot;&gt;&lt;span style=&quot;font-size: 14px;&quot;&gt;Отправка уведомлений о заказе&lt;/span&gt;&lt;/font&gt;" style="rounded=1;whiteSpace=wrap;html=1;" vertex="1" parent="1">
          <mxGeometry x="700" y="1550" width="200" height="40" as="geometry" />
        </mxCell>
        <mxCell id="pVzRPu4Jaru_-5LtxVrg-57" value="&lt;font style=&quot;font-size: 14px;&quot; face=&quot;Times New Roman&quot;&gt;Завершение процесса&lt;/font&gt;" style="ellipse;whiteSpace=wrap;html=1;" vertex="1" parent="1">
          <mxGeometry x="-144" y="1730" width="80" height="80" as="geometry" />
        </mxCell>
        <mxCell id="pVzRPu4Jaru_-5LtxVrg-63" value="" style="endArrow=none;html=1;rounded=0;" edge="1" parent="1">
          <mxGeometry width="50" height="50" relative="1" as="geometry">
            <mxPoint x="960" y="2040" as="sourcePoint" />
            <mxPoint x="960" y="-40" as="targetPoint" />
          </mxGeometry>
        </mxCell>
        <mxCell id="pVzRPu4Jaru_-5LtxVrg-64" value="" style="endArrow=none;html=1;rounded=0;" edge="1" parent="1">
          <mxGeometry width="50" height="50" relative="1" as="geometry">
            <mxPoint x="-160" y="2040" as="sourcePoint" />
            <mxPoint x="-160" y="-40" as="targetPoint" />
          </mxGeometry>
        </mxCell>
        <mxCell id="pVzRPu4Jaru_-5LtxVrg-67" style="edgeStyle=orthogonalEdgeStyle;rounded=0;orthogonalLoop=1;jettySize=auto;html=1;exitX=0.5;exitY=1;exitDx=0;exitDy=0;entryX=0.5;entryY=0;entryDx=0;entryDy=0;" edge="1" parent="1" source="pVzRPu4Jaru_-5LtxVrg-65" target="pVzRPu4Jaru_-5LtxVrg-3">
          <mxGeometry relative="1" as="geometry" />
        </mxCell>
        <mxCell id="pVzRPu4Jaru_-5LtxVrg-65" value="&lt;font face=&quot;Times New Roman&quot;&gt;&lt;span style=&quot;font-size: 14px;&quot;&gt;Начало процесса&lt;/span&gt;&lt;/font&gt;" style="ellipse;whiteSpace=wrap;html=1;" vertex="1" parent="1">
          <mxGeometry x="56.25" y="50" width="70" height="70" as="geometry" />
        </mxCell>
        <mxCell id="pVzRPu4Jaru_-5LtxVrg-68" value="" style="endArrow=none;html=1;rounded=0;" edge="1" parent="1">
          <mxGeometry width="50" height="50" relative="1" as="geometry">
            <mxPoint x="-160" y="-40" as="sourcePoint" />
            <mxPoint x="960" y="-40" as="targetPoint" />
          </mxGeometry>
        </mxCell>
        <mxCell id="pVzRPu4Jaru_-5LtxVrg-69" value="" style="endArrow=none;html=1;rounded=0;" edge="1" parent="1">
          <mxGeometry width="50" height="50" relative="1" as="geometry">
            <mxPoint x="-160" as="sourcePoint" />
            <mxPoint x="960" as="targetPoint" />
          </mxGeometry>
        </mxCell>
        <mxCell id="pVzRPu4Jaru_-5LtxVrg-70" value="" style="endArrow=none;html=1;rounded=0;" edge="1" parent="1">
          <mxGeometry width="50" height="50" relative="1" as="geometry">
            <mxPoint x="-160" y="2040" as="sourcePoint" />
            <mxPoint x="959" y="2042" as="targetPoint" />
          </mxGeometry>
        </mxCell>
        <mxCell id="pVzRPu4Jaru_-5LtxVrg-74" value="&lt;font face=&quot;Times New Roman&quot; style=&quot;font-size: 14px;&quot;&gt;Каталог&lt;/font&gt;" style="text;strokeColor=none;align=center;fillColor=none;html=1;verticalAlign=middle;whiteSpace=wrap;rounded=0;" vertex="1" parent="1">
          <mxGeometry x="310" y="320" width="60" height="30" as="geometry" />
        </mxCell>
        <mxCell id="pVzRPu4Jaru_-5LtxVrg-76" value="" style="endArrow=classic;html=1;rounded=0;" edge="1" parent="1">
          <mxGeometry width="50" height="50" relative="1" as="geometry">
            <mxPoint x="205" y="350" as="sourcePoint" />
            <mxPoint x="205" y="400" as="targetPoint" />
          </mxGeometry>
        </mxCell>
        <mxCell id="pVzRPu4Jaru_-5LtxVrg-79" value="&lt;font style=&quot;font-size: 14px;&quot; face=&quot;Times New Roman&quot;&gt;Поиск&lt;/font&gt;" style="text;strokeColor=none;align=center;fillColor=none;html=1;verticalAlign=middle;whiteSpace=wrap;rounded=0;" vertex="1" parent="1">
          <mxGeometry x="174" y="320" width="60" height="30" as="geometry" />
        </mxCell>
        <mxCell id="pVzRPu4Jaru_-5LtxVrg-80" value="" style="endArrow=none;html=1;rounded=0;" edge="1" parent="1">
          <mxGeometry width="50" height="50" relative="1" as="geometry">
            <mxPoint x="196" y="480" as="sourcePoint" />
            <mxPoint x="446" y="480" as="targetPoint" />
          </mxGeometry>
        </mxCell>
        <mxCell id="pVzRPu4Jaru_-5LtxVrg-97" value="" style="endArrow=classic;startArrow=classic;html=1;rounded=0;exitX=0.5;exitY=0;exitDx=0;exitDy=0;" edge="1" parent="1">
          <mxGeometry width="50" height="50" relative="1" as="geometry">
            <mxPoint x="42.62" y="1490" as="sourcePoint" />
            <mxPoint x="797.62" y="1477" as="targetPoint" />
            <Array as="points">
              <mxPoint x="42.37" y="1410" />
              <mxPoint x="797.62" y="1407" />
            </Array>
          </mxGeometry>
        </mxCell>
        <mxCell id="pVzRPu4Jaru_-5LtxVrg-103" value="" style="endArrow=none;html=1;rounded=0;entryX=1;entryY=0.5;entryDx=0;entryDy=0;" edge="1" parent="1" target="pVzRPu4Jaru_-5LtxVrg-43">
          <mxGeometry width="50" height="50" relative="1" as="geometry">
            <mxPoint x="560" y="1407.43" as="sourcePoint" />
            <mxPoint x="535" y="1367" as="targetPoint" />
            <Array as="points">
              <mxPoint x="560" y="1365" />
            </Array>
          </mxGeometry>
        </mxCell>
        <mxCell id="pVzRPu4Jaru_-5LtxVrg-106" value="" style="endArrow=none;html=1;rounded=0;entryX=0;entryY=0.5;entryDx=0;entryDy=0;" edge="1" parent="1" target="pVzRPu4Jaru_-5LtxVrg-43">
          <mxGeometry width="50" height="50" relative="1" as="geometry">
            <mxPoint x="350" y="1409" as="sourcePoint" />
            <mxPoint x="370" y="1389" as="targetPoint" />
            <Array as="points">
              <mxPoint x="350" y="1365" />
            </Array>
          </mxGeometry>
        </mxCell>
        <mxCell id="pVzRPu4Jaru_-5LtxVrg-107" value="Нет" style="text;strokeColor=none;align=center;fillColor=none;html=1;verticalAlign=middle;whiteSpace=wrap;rounded=0;" vertex="1" parent="1">
          <mxGeometry x="338.5" y="1340" width="60" height="30" as="geometry" />
        </mxCell>
        <mxCell id="pVzRPu4Jaru_-5LtxVrg-108" value="Да" style="text;strokeColor=none;align=center;fillColor=none;html=1;verticalAlign=middle;whiteSpace=wrap;rounded=0;" vertex="1" parent="1">
          <mxGeometry x="517.5" y="1339" width="60" height="30" as="geometry" />
        </mxCell>
      </root>
    </mxGraphModel>
  </diagram>
</mxfile>
